<svg width="24" height="24" viewBox="0 0 24 24" fill="none" xmlns="http://www.w3.org/2000/svg">
<path d="M20.5125 9.72257L13.0125 2.90695C12.7359 2.65397 12.3747 2.51367 12 2.51367C11.6252 2.51367 11.264 2.65397 10.9875 2.90695L3.48746 9.72257C3.3339 9.86305 3.21125 10.034 3.12733 10.2244C3.0434 10.4149 3.00002 10.6207 2.99996 10.8288V19.4632C2.99386 19.8414 3.12737 20.2085 3.37496 20.4944C3.51548 20.6542 3.68858 20.7821 3.88263 20.8694C4.07667 20.9567 4.28717 21.0015 4.49996 21.0007H8.99996C9.19887 21.0007 9.38963 20.9217 9.53029 20.781C9.67094 20.6404 9.74996 20.4496 9.74996 20.2507V15.7507C9.74996 15.5518 9.82897 15.361 9.96963 15.2204C10.1103 15.0797 10.301 15.0007 10.5 15.0007H13.5C13.6989 15.0007 13.8896 15.0797 14.0303 15.2204C14.1709 15.361 14.25 15.5518 14.25 15.7507V20.2507C14.25 20.4496 14.329 20.6404 14.4696 20.781C14.6103 20.9217 14.801 21.0007 15 21.0007H19.5C19.7487 21.0029 19.994 20.9416 20.2125 20.8226C20.4502 20.6931 20.6487 20.5021 20.7873 20.2695C20.9258 20.0369 20.9993 19.7714 21 19.5007V10.8288C20.9999 10.6207 20.9565 10.4149 20.8726 10.2244C20.7887 10.034 20.666 9.86305 20.5125 9.72257V9.72257Z" fill="#7D7F83"/>
</svg>
