<svg width="24" height="24" viewBox="0 0 24 24" fill="none" xmlns="http://www.w3.org/2000/svg">
<path d="M16.4999 10.8754C16.4999 11.9879 16.17 13.0754 15.5519 14.0005C14.9338 14.9255 14.0553 15.6465 13.0275 16.0722C11.9997 16.498 10.8687 16.6093 9.77752 16.3923C8.68637 16.1753 7.6841 15.6395 6.89743 14.8529C6.11076 14.0662 5.57503 13.0639 5.35798 11.9728C5.14094 10.8816 5.25234 9.75063 5.67808 8.7228C6.10382 7.69496 6.82479 6.81646 7.74982 6.19837C8.67485 5.58029 9.76238 5.25039 10.8749 5.25039C12.3667 5.25039 13.7975 5.84302 14.8524 6.89791C15.9073 7.95281 16.4999 9.38355 16.4999 10.8754ZM21.5249 21.5348C21.3849 21.6726 21.1964 21.7501 20.9999 21.7504C20.8007 21.7495 20.6095 21.6724 20.4655 21.5348L16.4155 17.4754C14.7098 18.9081 12.5169 19.627 10.294 19.4821C8.07118 19.3372 5.99008 18.3398 4.48476 16.6979C2.97944 15.0559 2.16612 12.8962 2.21444 10.6691C2.26276 8.44212 3.16898 6.31971 4.7441 4.74459C6.31922 3.16947 8.44163 2.26324 10.6687 2.21493C12.8957 2.16661 15.0554 2.97992 16.6974 4.48525C18.3393 5.99057 19.3367 8.07167 19.4816 10.2945C19.6265 12.5174 18.9076 14.7103 17.4749 16.416L21.5249 20.466C21.5958 20.5358 21.652 20.619 21.6905 20.7107C21.7289 20.8025 21.7486 20.9009 21.7486 21.0004C21.7486 21.0998 21.7289 21.1983 21.6905 21.2901C21.652 21.3818 21.5958 21.465 21.5249 21.5348V21.5348ZM10.8749 18.0004C12.2841 18.0004 13.6616 17.5825 14.8333 16.7996C16.005 16.0167 16.9183 14.9039 17.4575 13.602C17.9968 12.3001 18.1379 10.8675 17.863 9.48537C17.5881 8.10326 16.9095 6.8337 15.913 5.83725C14.9166 4.8408 13.647 4.16221 12.2649 3.88729C10.8828 3.61237 9.45021 3.75347 8.14828 4.29275C6.84636 4.83202 5.73358 5.74525 4.95068 6.91695C4.16777 8.08865 3.7499 9.4662 3.7499 10.8754C3.75238 12.7643 4.50385 14.5751 5.8395 15.9108C7.17516 17.2464 8.986 17.9979 10.8749 18.0004V18.0004Z" fill="#7D7F83"/>
</svg>
