<svg width="24" height="24" viewBox="0 0 24 24" fill="none" xmlns="http://www.w3.org/2000/svg">
<path d="M10.875 2.25C15.6385 2.25 19.5 6.11154 19.5 10.875C19.5 12.9864 18.7391 14.9187 17.4795 16.418L21.5312 20.4697C21.8236 20.7625 21.8236 21.2375 21.5312 21.5303C21.2385 21.823 20.7636 21.8227 20.4707 21.5303L16.4199 17.4795C14.9205 18.7397 12.9869 19.5 10.875 19.5C6.11154 19.5 2.25 15.6385 2.25 10.875C2.25 6.11154 6.11154 2.25 10.875 2.25ZM10.875 3.75C6.93997 3.75 3.75 6.93997 3.75 10.875C3.75 14.81 6.93997 18 10.875 18C14.81 18 18 14.81 18 10.875C18 6.93997 14.81 3.75 10.875 3.75Z" fill="#7D7F83"/>
</svg>
